<svg width="33" height="29" viewBox="0 0 33 29" fill="none" xmlns="http://www.w3.org/2000/svg">
<path d="M29.5453 2.08325C25.8199 -1.04917 20.0643 -0.578665 16.5 3.05004C12.9357 -0.578665 7.18008 -1.05562 3.45469 2.08325C-1.39218 6.16313 -0.683195 12.8147 2.77149 16.3403L14.0766 27.858C14.7211 28.5155 15.5848 28.8828 16.5 28.8828C17.4217 28.8828 18.2789 28.5219 18.9234 27.8645L30.2285 16.3467C33.6767 12.8211 34.3986 6.16957 29.5453 2.08325ZM28.0242 14.1682L16.7191 25.686C16.5644 25.8407 16.4355 25.8407 16.2809 25.686L4.97578 14.1682C2.62325 11.7705 2.14629 7.23305 5.44629 4.45512C7.95352 2.3475 11.8207 2.66332 14.2441 5.13188L16.5 7.43285L18.7559 5.13188C21.1922 2.65043 25.0594 2.3475 27.5537 4.44867C30.8473 7.2266 30.3574 11.7899 28.0242 14.1682Z" fill="#D74ED9"/>
</svg>
