<svg width="213" height="44" viewBox="0 0 213 44" fill="none" xmlns="http://www.w3.org/2000/svg">
<path d="M44 22C44 27.8348 41.6822 33.4306 37.5564 37.5564C33.4306 41.6822 27.8348 44 22 44C16.1652 44 10.5695 41.6822 6.44365 37.5564C2.31785 33.4306 0 27.8348 0 22C0 16.1652 2.31785 10.5695 6.44365 6.44365C10.5695 2.31785 16.1652 0 22 0C27.8348 0 33.4306 2.31785 37.5564 6.44365C41.6822 10.5695 44 16.1652 44 22ZM27.5 22C27.5 20.5413 26.9205 19.1424 25.8891 18.1109C24.8576 17.0795 23.4587 16.5 22 16.5C20.5413 16.5 19.1424 17.0795 18.1109 18.1109C17.0795 19.1424 16.5 20.5413 16.5 22C16.5 23.4587 17.0795 24.8576 18.1109 25.8891C19.1424 26.9205 20.5413 27.5 22 27.5C23.4587 27.5 24.8576 26.9205 25.8891 25.8891C26.9205 24.8576 27.5 23.4587 27.5 22ZM11 22C11 19.0826 12.1589 16.2847 14.2218 14.2218C16.2847 12.1589 19.0826 11 22 11C22.3647 11 22.7144 10.8551 22.9723 10.5973C23.2301 10.3394 23.375 9.98967 23.375 9.625C23.375 9.26033 23.2301 8.91059 22.9723 8.65273C22.7144 8.39487 22.3647 8.25 22 8.25C18.3533 8.25 14.8559 9.69866 12.2773 12.2773C9.69866 14.8559 8.25 18.3533 8.25 22C8.25 22.3647 8.39487 22.7144 8.65273 22.9723C8.91059 23.2301 9.26033 23.375 9.625 23.375C9.98967 23.375 10.3394 23.2301 10.5973 22.9723C10.8551 22.7144 11 22.3647 11 22ZM35.75 22C35.75 21.6353 35.6051 21.2856 35.3473 21.0277C35.0894 20.7699 34.7397 20.625 34.375 20.625C34.0103 20.625 33.6606 20.7699 33.4027 21.0277C33.1449 21.2856 33 21.6353 33 22C33 24.9174 31.8411 27.7153 29.7782 29.7782C27.7153 31.8411 24.9174 33 22 33C21.6353 33 21.2856 33.1449 21.0277 33.4027C20.7699 33.6606 20.625 34.0103 20.625 34.375C20.625 34.7397 20.7699 35.0894 21.0277 35.3473C21.2856 35.6051 21.6353 35.75 22 35.75C25.6467 35.75 29.1441 34.3013 31.7227 31.7227C34.3013 29.1441 35.75 25.6467 35.75 22Z" fill="white"/>
<path d="M70.0909 9.72727H72.9091V25.1364C72.9091 26.7273 72.5341 28.1477 71.7841 29.3977C71.0417 30.6402 69.9924 31.6212 68.6364 32.3409C67.2803 33.053 65.6894 33.4091 63.8636 33.4091C62.0379 33.4091 60.447 33.053 59.0909 32.3409C57.7348 31.6212 56.6818 30.6402 55.9318 29.3977C55.1894 28.1477 54.8182 26.7273 54.8182 25.1364V9.72727H57.6364V24.9091C57.6364 26.0455 57.8864 27.0568 58.3864 27.9432C58.8864 28.822 59.5985 29.5152 60.5227 30.0227C61.4545 30.5227 62.5682 30.7727 63.8636 30.7727C65.1591 30.7727 66.2727 30.5227 67.2045 30.0227C68.1364 29.5152 68.8485 28.822 69.3409 27.9432C69.8409 27.0568 70.0909 26.0455 70.0909 24.9091V9.72727Z" fill="white"/>
<path d="M85.7188 33H78.5369V9.72727H86.0369C88.2945 9.72727 90.2263 10.1932 91.8324 11.125C93.4384 12.0492 94.6695 13.3788 95.5256 15.1136C96.3816 16.8409 96.8097 18.9091 96.8097 21.3182C96.8097 23.7424 96.3778 25.8295 95.5142 27.5795C94.6506 29.322 93.393 30.6629 91.7415 31.6023C90.09 32.5341 88.0824 33 85.7188 33ZM81.3551 30.5H85.5369C87.4612 30.5 89.0559 30.1288 90.321 29.3864C91.5862 28.6439 92.5294 27.5871 93.1506 26.2159C93.7718 24.8447 94.0824 23.2121 94.0824 21.3182C94.0824 19.4394 93.7756 17.822 93.1619 16.4659C92.5483 15.1023 91.6316 14.0568 90.4119 13.3295C89.1922 12.5947 87.6733 12.2273 85.8551 12.2273H81.3551V30.5Z" fill="white"/>
<path d="M117.446 17C117.196 16.2348 116.866 15.5492 116.457 14.9432C116.056 14.3295 115.575 13.8068 115.014 13.375C114.461 12.9432 113.832 12.6136 113.128 12.3864C112.423 12.1591 111.651 12.0455 110.81 12.0455C109.431 12.0455 108.177 12.4015 107.048 13.1136C105.92 13.8258 105.022 14.875 104.355 16.2614C103.688 17.6477 103.355 19.3485 103.355 21.3636C103.355 23.3788 103.692 25.0795 104.366 26.4659C105.041 27.8523 105.954 28.9015 107.105 29.6136C108.257 30.3258 109.552 30.6818 110.991 30.6818C112.325 30.6818 113.499 30.3977 114.514 29.8295C115.537 29.2538 116.332 28.4432 116.901 27.3977C117.476 26.3447 117.764 25.1061 117.764 23.6818L118.628 23.8636H111.628V21.3636H120.491V23.8636C120.491 25.7803 120.082 27.447 119.264 28.8636C118.454 30.2803 117.332 31.3788 115.901 32.1591C114.476 32.9318 112.84 33.3182 110.991 33.3182C108.931 33.3182 107.12 32.8333 105.56 31.8636C104.007 30.8939 102.795 29.5152 101.923 27.7273C101.06 25.9394 100.628 23.8182 100.628 21.3636C100.628 19.5227 100.874 17.8674 101.366 16.3977C101.866 14.9205 102.571 13.6629 103.48 12.625C104.389 11.5871 105.465 10.7917 106.707 10.2386C107.95 9.68561 109.317 9.40909 110.81 9.40909C112.037 9.40909 113.181 9.5947 114.241 9.96591C115.31 10.3295 116.26 10.8485 117.094 11.5227C117.935 12.1894 118.635 12.9886 119.196 13.9205C119.757 14.8447 120.143 15.8712 120.355 17H117.446Z" fill="white"/>
<path d="M141.227 17C140.977 16.2348 140.648 15.5492 140.239 14.9432C139.837 14.3295 139.356 13.8068 138.795 13.375C138.242 12.9432 137.614 12.6136 136.909 12.3864C136.205 12.1591 135.432 12.0455 134.591 12.0455C133.212 12.0455 131.958 12.4015 130.83 13.1136C129.701 13.8258 128.803 14.875 128.136 16.2614C127.47 17.6477 127.136 19.3485 127.136 21.3636C127.136 23.3788 127.473 25.0795 128.148 26.4659C128.822 27.8523 129.735 28.9015 130.886 29.6136C132.038 30.3258 133.333 30.6818 134.773 30.6818C136.106 30.6818 137.28 30.3977 138.295 29.8295C139.318 29.2538 140.114 28.4432 140.682 27.3977C141.258 26.3447 141.545 25.1061 141.545 23.6818L142.409 23.8636H135.409V21.3636H144.273V23.8636C144.273 25.7803 143.864 27.447 143.045 28.8636C142.235 30.2803 141.114 31.3788 139.682 32.1591C138.258 32.9318 136.621 33.3182 134.773 33.3182C132.712 33.3182 130.902 32.8333 129.341 31.8636C127.788 30.8939 126.576 29.5152 125.705 27.7273C124.841 25.9394 124.409 23.8182 124.409 21.3636C124.409 19.5227 124.655 17.8674 125.148 16.3977C125.648 14.9205 126.352 13.6629 127.261 12.625C128.17 11.5871 129.246 10.7917 130.489 10.2386C131.731 9.68561 133.098 9.40909 134.591 9.40909C135.818 9.40909 136.962 9.5947 138.023 9.96591C139.091 10.3295 140.042 10.8485 140.875 11.5227C141.716 12.1894 142.417 12.9886 142.977 13.9205C143.538 14.8447 143.924 15.8712 144.136 17H141.227Z" fill="white"/>
<path d="M149.099 33V9.72727H163.145V12.2273H151.918V20.0909H162.418V22.5909H151.918V30.5H163.327V33H149.099Z" fill="white"/>
<path d="M168.224 9.72727H171.588L179.497 29.0455H179.77L187.679 9.72727H191.043V33H188.406V15.3182H188.179L180.906 33H178.361L171.088 15.3182H170.861V33H168.224V9.72727Z" fill="white"/>
<path d="M209.42 15.5455C209.284 14.3939 208.731 13.5 207.761 12.8636C206.792 12.2273 205.602 11.9091 204.193 11.9091C203.163 11.9091 202.261 12.0758 201.489 12.4091C200.723 12.7424 200.125 13.2008 199.693 13.7841C199.269 14.3674 199.057 15.0303 199.057 15.7727C199.057 16.3939 199.205 16.928 199.5 17.375C199.803 17.8144 200.189 18.1818 200.659 18.4773C201.129 18.7652 201.621 19.0038 202.136 19.1932C202.652 19.375 203.125 19.5227 203.557 19.6364L205.92 20.2727C206.527 20.4318 207.201 20.6515 207.943 20.9318C208.693 21.2121 209.409 21.5947 210.091 22.0795C210.78 22.5568 211.348 23.1705 211.795 23.9205C212.242 24.6705 212.466 25.5909 212.466 26.6818C212.466 27.9394 212.136 29.0758 211.477 30.0909C210.826 31.1061 209.871 31.9129 208.614 32.5114C207.364 33.1098 205.845 33.4091 204.057 33.4091C202.39 33.4091 200.947 33.1402 199.727 32.6023C198.515 32.0644 197.561 31.3144 196.864 30.3523C196.174 29.3902 195.784 28.2727 195.693 27H198.602C198.678 27.8788 198.973 28.6061 199.489 29.1818C200.011 29.75 200.67 30.1742 201.466 30.4545C202.269 30.7273 203.133 30.8636 204.057 30.8636C205.133 30.8636 206.098 30.6894 206.955 30.3409C207.811 29.9848 208.489 29.4924 208.989 28.8636C209.489 28.2273 209.739 27.4848 209.739 26.6364C209.739 25.8636 209.523 25.2348 209.091 24.75C208.659 24.2652 208.091 23.8712 207.386 23.5682C206.682 23.2652 205.92 23 205.102 22.7727L202.239 21.9545C200.42 21.4318 198.981 20.6856 197.92 19.7159C196.86 18.7462 196.33 17.4773 196.33 15.9091C196.33 14.6061 196.682 13.4697 197.386 12.5C198.098 11.5227 199.053 10.7652 200.25 10.2273C201.455 9.68182 202.799 9.40909 204.284 9.40909C205.784 9.40909 207.117 9.67803 208.284 10.2159C209.451 10.7462 210.375 11.4735 211.057 12.3977C211.746 13.322 212.11 14.3712 212.148 15.5455H209.42Z" fill="white"/>
</svg>
