<svg width="120" height="120" viewBox="0 0 120 120" fill="#ffff00" xmlns="http://www.w3.org/2000/svg">
<path d="M0 5C0 2.23858 2.23858 0 5 0H115C117.761 0 120 2.23858 120 5V115C120 117.761 117.761 120 115 120H5C2.23858 120 0 117.761 0 115V5Z" fill="#1F202B"/>
<path d="M60 88C52.5739 88 45.452 85.05 40.201 79.799C34.95 74.548 32 67.4261 32 60C32 52.5739 34.95 45.452 40.201 40.201C45.452 34.95 52.5739 32 60 32C67.4261 32 74.548 34.95 79.799 40.201C85.05 45.452 88 52.5739 88 60C88 67.4261 85.05 74.548 79.799 79.799C74.548 85.05 67.4261 88 60 88ZM60 92C68.4869 92 76.6263 88.6286 82.6274 82.6274C88.6286 76.6263 92 68.4869 92 60C92 51.5131 88.6286 43.3737 82.6274 37.3726C76.6263 31.3714 68.4869 28 60 28C51.5131 28 43.3737 31.3714 37.3726 37.3726C31.3714 43.3737 28 51.5131 28 60C28 68.4869 31.3714 76.6263 37.3726 82.6274C43.3737 88.6286 51.5131 92 60 92Z" fill="#404258"/>
<path d="M68.4 60C68.4 62.2278 67.515 64.3644 65.9397 65.9397C64.3644 67.515 62.2278 68.4 60 68.4C57.7722 68.4 55.6356 67.515 54.0603 65.9397C52.485 64.3644 51.6 62.2278 51.6 60C51.6 57.7722 52.485 55.6356 54.0603 54.0603C55.6356 52.485 57.7722 51.6 60 51.6C62.2278 51.6 64.3644 52.485 65.9397 54.0603C67.515 55.6356 68.4 57.7722 68.4 60ZM60 43.2C55.5444 43.2 51.2712 44.97 48.1206 48.1206C44.97 51.2712 43.2 55.5444 43.2 60C43.2 60.557 42.9787 61.0911 42.5849 61.4849C42.1911 61.8788 41.657 62.1 41.1 62.1C40.543 62.1 40.0089 61.8788 39.6151 61.4849C39.2213 61.0911 39 60.557 39 60C39 54.4305 41.2125 49.089 45.1508 45.1508C49.089 41.2125 54.4305 39 60 39C60.557 39 61.0911 39.2213 61.4849 39.6151C61.8788 40.0089 62.1 40.543 62.1 41.1C62.1 41.657 61.8788 42.1911 61.4849 42.5849C61.0911 42.9787 60.557 43.2 60 43.2ZM78.9 57.9C79.457 57.9 79.9911 58.1212 80.3849 58.5151C80.7788 58.9089 81 59.443 81 60C81 65.5695 78.7875 70.911 74.8492 74.8492C70.911 78.7875 65.5695 81 60 81C59.443 81 58.9089 80.7788 58.5151 80.3849C58.1212 79.9911 57.9 79.457 57.9 78.9C57.9 78.343 58.1212 77.8089 58.5151 77.4151C58.9089 77.0212 59.443 76.8 60 76.8C64.4556 76.8 68.7288 75.03 71.8794 71.8794C75.03 68.7288 76.8 64.4556 76.8 60C76.8 59.443 77.0212 58.9089 77.4151 58.5151C77.8089 58.1212 78.343 57.9 78.9 57.9Z" fill="#404258"/>
</svg>
