<svg width="120" height="120" viewBox="0 0 120 120" fill="none" xmlns="http://www.w3.org/2000/svg">
<path d="M0 5C0 2.23858 2.23858 0 5 0H115C117.761 0 120 2.23858 120 5V115C120 117.761 117.761 120 115 120H5C2.23858 120 0 117.761 0 115V5Z" fill="#1F202B"/>
<path d="M34.8114 28.0294C35.1356 27.975 35.4678 28.0008 35.7804 28.1047C36.093 28.2085 36.3772 28.3874 36.6094 28.6267L39.2857 31.3869L41.962 28.6267C42.1544 28.428 42.383 28.2704 42.6347 28.1629C42.8863 28.0554 43.1561 28 43.4286 28C43.701 28 43.9708 28.0554 44.2225 28.1629C44.4741 28.2704 44.7027 28.428 44.8951 28.6267L47.5714 31.3869L50.2477 28.6267C50.4401 28.428 50.6687 28.2704 50.9204 28.1629C51.172 28.0554 51.4418 28 51.7143 28C51.9868 28 52.2565 28.0554 52.5082 28.1629C52.7599 28.2704 52.9884 28.428 53.1809 28.6267L55.8571 31.3869L58.5334 28.6267C58.7258 28.428 58.9544 28.2704 59.2061 28.1629C59.4577 28.0554 59.7275 28 60 28C60.2725 28 60.5422 28.0554 60.7939 28.1629C61.0456 28.2704 61.2742 28.428 61.4666 28.6267L64.1429 31.3869L66.8191 28.6267C67.0116 28.428 67.2401 28.2704 67.4918 28.1629C67.7435 28.0554 68.0132 28 68.2857 28C68.5582 28 68.828 28.0554 69.0796 28.1629C69.3313 28.2704 69.5599 28.428 69.7523 28.6267L72.4286 31.3869L75.1049 28.6267C75.2973 28.428 75.5259 28.2704 75.7775 28.1629C76.0292 28.0554 76.299 28 76.5714 28C76.8439 28 77.1137 28.0554 77.3653 28.1629C77.617 28.2704 77.8456 28.428 78.038 28.6267L80.7143 31.3869L83.3906 28.6267C83.6227 28.3875 83.9067 28.2085 84.2191 28.1046C84.5316 28.0007 84.8636 27.9747 85.1877 28.0289C85.5118 28.083 85.8188 28.2158 86.0833 28.4162C86.3478 28.6165 86.5623 28.8788 86.709 29.1813L88.7804 33.4474C88.9248 33.7441 89 34.0713 89 34.403V85.597C89 85.9287 88.9248 86.256 88.7804 86.5526L86.709 90.8187C86.5621 91.1205 86.3478 91.382 86.0836 91.5818C85.8195 91.7817 85.513 91.9141 85.1895 91.9682C84.866 92.0224 84.5346 91.9967 84.2226 91.8932C83.9106 91.7898 83.6268 91.6116 83.3947 91.3733L80.7143 88.6131L78.038 91.3733C77.8456 91.572 77.617 91.7296 77.3653 91.8371C77.1137 91.9446 76.8439 92 76.5714 92C76.299 92 76.0292 91.9446 75.7775 91.8371C75.5259 91.7296 75.2973 91.572 75.1049 91.3733L72.4286 88.6131L69.7523 91.3733C69.5599 91.572 69.3313 91.7296 69.0796 91.8371C68.828 91.9446 68.5582 92 68.2857 92C68.0132 92 67.7435 91.9446 67.4918 91.8371C67.2401 91.7296 67.0116 91.572 66.8191 91.3733L64.1429 88.6131L61.4666 91.3733C61.2742 91.572 61.0456 91.7296 60.7939 91.8371C60.5422 91.9446 60.2725 92 60 92C59.7275 92 59.4577 91.9446 59.2061 91.8371C58.9544 91.7296 58.7258 91.572 58.5334 91.3733L55.8571 88.6131L53.1809 91.3733C52.9884 91.572 52.7599 91.7296 52.5082 91.8371C52.2565 91.9446 51.9868 92 51.7143 92C51.4418 92 51.172 91.9446 50.9204 91.8371C50.6687 91.7296 50.4401 91.572 50.2477 91.3733L47.5714 88.6131L44.8951 91.3733C44.7027 91.572 44.4741 91.7296 44.2225 91.8371C43.9708 91.9446 43.701 92 43.4286 92C43.1561 92 42.8863 91.9446 42.6347 91.8371C42.383 91.7296 42.1544 91.572 41.962 91.3733L39.2857 88.6131L36.6094 91.3733C36.3773 91.6125 36.0933 91.7915 35.7809 91.8954C35.4684 91.9993 35.1364 92.0253 34.8123 91.9711C34.4882 91.917 34.1812 91.7842 33.9167 91.5839C33.6522 91.3835 33.4377 91.1212 33.291 90.8187L31.2196 86.5526C31.0752 86.256 31 85.9287 31 85.597V34.403C31 34.0713 31.0752 33.7441 31.2196 33.4474L33.291 29.1813C33.4377 28.879 33.6521 28.6169 33.9164 28.4166C34.1807 28.2164 34.4875 28.0837 34.8114 28.0294ZM35.7104 33.7375L35.1429 34.9065V85.0935L35.7104 86.2625L37.8233 84.0867C38.2117 83.6868 38.7385 83.4622 39.2878 83.4622C39.8371 83.4622 40.3638 83.6868 40.7523 84.0867L43.4286 86.8469L46.1049 84.091C46.2973 83.8924 46.5259 83.7347 46.7775 83.6272C47.0292 83.5197 47.299 83.4643 47.5714 83.4643C47.8439 83.4643 48.1137 83.5197 48.3653 83.6272C48.617 83.7347 48.8456 83.8924 49.038 84.091L51.7143 86.8469L54.3906 84.091C54.583 83.8924 54.8116 83.7347 55.0632 83.6272C55.3149 83.5197 55.5847 83.4643 55.8571 83.4643C56.1296 83.4643 56.3994 83.5197 56.6511 83.6272C56.9027 83.7347 57.1313 83.8924 57.3237 84.091L60 86.8469L62.6763 84.091C62.8687 83.8924 63.0973 83.7347 63.3489 83.6272C63.6006 83.5197 63.8704 83.4643 64.1429 83.4643C64.4153 83.4643 64.6851 83.5197 64.9368 83.6272C65.1884 83.7347 65.417 83.8924 65.6094 84.091L68.2857 86.8469L70.962 84.091C71.1544 83.8924 71.383 83.7347 71.6347 83.6272C71.8863 83.5197 72.1561 83.4643 72.4286 83.4643C72.701 83.4643 72.9708 83.5197 73.2225 83.6272C73.4741 83.7347 73.7027 83.8924 73.8951 84.091L76.5714 86.8469L79.2477 84.091C79.4401 83.8924 79.6687 83.7347 79.9204 83.6272C80.172 83.5197 80.4418 83.4643 80.7143 83.4643C80.9868 83.4643 81.2565 83.5197 81.5082 83.6272C81.7599 83.7347 81.9884 83.8924 82.1809 84.091L84.2896 86.2625L84.8571 85.0935V34.9065L84.2896 33.7375L82.1767 35.9133C81.7883 36.3132 81.2615 36.5378 80.7122 36.5378C80.1629 36.5378 79.6362 36.3132 79.2477 35.9133L76.5714 33.1531L73.8951 35.9133C73.7027 36.1119 73.4741 36.2695 73.2225 36.3771C72.9708 36.4846 72.701 36.5399 72.4286 36.5399C72.1561 36.5399 71.8863 36.4846 71.6347 36.3771C71.383 36.2695 71.1544 36.1119 70.962 35.9133L68.2857 33.1531L65.6094 35.9133C65.417 36.1119 65.1884 36.2695 64.9368 36.3771C64.6851 36.4846 64.4153 36.5399 64.1429 36.5399C63.8704 36.5399 63.6006 36.4846 63.3489 36.3771C63.0973 36.2695 62.8687 36.1119 62.6763 35.9133L60 33.1531L57.3237 35.9133C57.1313 36.1119 56.9027 36.2695 56.6511 36.3771C56.3994 36.4846 56.1296 36.5399 55.8571 36.5399C55.5847 36.5399 55.3149 36.4846 55.0632 36.3771C54.8116 36.2695 54.583 36.1119 54.3906 35.9133L51.7143 33.1531L49.038 35.9133C48.8456 36.1119 48.617 36.2695 48.3653 36.3771C48.1137 36.4846 47.8439 36.5399 47.5714 36.5399C47.299 36.5399 47.0292 36.4846 46.7775 36.3771C46.5259 36.2695 46.2973 36.1119 46.1049 35.9133L43.4286 33.1531L40.7523 35.9133C40.5599 36.1119 40.3313 36.2695 40.0796 36.3771C39.828 36.4846 39.5582 36.5399 39.2857 36.5399C39.0132 36.5399 38.7435 36.4846 38.4918 36.3771C38.2401 36.2695 38.0116 36.1119 37.8191 35.9133L35.7104 33.7375Z" fill="#404258"/>
<path d="M39 47.1429C39 46.5745 39.2213 46.0295 39.6151 45.6276C40.0089 45.2258 40.543 45 41.1 45H66.3C66.857 45 67.3911 45.2258 67.7849 45.6276C68.1788 46.0295 68.4 46.5745 68.4 47.1429C68.4 47.7112 68.1788 48.2562 67.7849 48.6581C67.3911 49.0599 66.857 49.2857 66.3 49.2857H41.1C40.543 49.2857 40.0089 49.0599 39.6151 48.6581C39.2213 48.2562 39 47.7112 39 47.1429ZM39 55.7143C39 55.146 39.2213 54.6009 39.6151 54.1991C40.0089 53.7972 40.543 53.5714 41.1 53.5714H66.3C66.857 53.5714 67.3911 53.7972 67.7849 54.1991C68.1788 54.6009 68.4 55.146 68.4 55.7143C68.4 56.2826 68.1788 56.8277 67.7849 57.2295C67.3911 57.6314 66.857 57.8571 66.3 57.8571H41.1C40.543 57.8571 40.0089 57.6314 39.6151 57.2295C39.2213 56.8277 39 56.2826 39 55.7143ZM39 64.2857C39 63.7174 39.2213 63.1723 39.6151 62.7705C40.0089 62.3686 40.543 62.1429 41.1 62.1429H66.3C66.857 62.1429 67.3911 62.3686 67.7849 62.7705C68.1788 63.1723 68.4 63.7174 68.4 64.2857C68.4 64.854 68.1788 65.3991 67.7849 65.8009C67.3911 66.2028 66.857 66.4286 66.3 66.4286H41.1C40.543 66.4286 40.0089 66.2028 39.6151 65.8009C39.2213 65.3991 39 64.854 39 64.2857ZM39 72.8571C39 72.2888 39.2213 71.7438 39.6151 71.3419C40.0089 70.94 40.543 70.7143 41.1 70.7143H66.3C66.857 70.7143 67.3911 70.94 67.7849 71.3419C68.1788 71.7438 68.4 72.2888 68.4 72.8571C68.4 73.4255 68.1788 73.9705 67.7849 74.3724C67.3911 74.7742 66.857 75 66.3 75H41.1C40.543 75 40.0089 74.7742 39.6151 74.3724C39.2213 73.9705 39 73.4255 39 72.8571ZM72.6 47.1429C72.6 46.5745 72.8212 46.0295 73.2151 45.6276C73.6089 45.2258 74.143 45 74.7 45H78.9C79.457 45 79.9911 45.2258 80.3849 45.6276C80.7788 46.0295 81 46.5745 81 47.1429C81 47.7112 80.7788 48.2562 80.3849 48.6581C79.9911 49.0599 79.457 49.2857 78.9 49.2857H74.7C74.143 49.2857 73.6089 49.0599 73.2151 48.6581C72.8212 48.2562 72.6 47.7112 72.6 47.1429ZM72.6 55.7143C72.6 55.146 72.8212 54.6009 73.2151 54.1991C73.6089 53.7972 74.143 53.5714 74.7 53.5714H78.9C79.457 53.5714 79.9911 53.7972 80.3849 54.1991C80.7788 54.6009 81 55.146 81 55.7143C81 56.2826 80.7788 56.8277 80.3849 57.2295C79.9911 57.6314 79.457 57.8571 78.9 57.8571H74.7C74.143 57.8571 73.6089 57.6314 73.2151 57.2295C72.8212 56.8277 72.6 56.2826 72.6 55.7143ZM72.6 64.2857C72.6 63.7174 72.8212 63.1723 73.2151 62.7705C73.6089 62.3686 74.143 62.1429 74.7 62.1429H78.9C79.457 62.1429 79.9911 62.3686 80.3849 62.7705C80.7788 63.1723 81 63.7174 81 64.2857C81 64.854 80.7788 65.3991 80.3849 65.8009C79.9911 66.2028 79.457 66.4286 78.9 66.4286H74.7C74.143 66.4286 73.6089 66.2028 73.2151 65.8009C72.8212 65.3991 72.6 64.854 72.6 64.2857ZM72.6 72.8571C72.6 72.2888 72.8212 71.7438 73.2151 71.3419C73.6089 70.94 74.143 70.7143 74.7 70.7143H78.9C79.457 70.7143 79.9911 70.94 80.3849 71.3419C80.7788 71.7438 81 72.2888 81 72.8571C81 73.4255 80.7788 73.9705 80.3849 74.3724C79.9911 74.7742 79.457 75 78.9 75H74.7C74.143 75 73.6089 74.7742 73.2151 74.3724C72.8212 73.9705 72.6 73.4255 72.6 72.8571Z" fill="#404258"/>
</svg>
