<svg width="120" height="120" viewBox="0 0 120 120" fill="none" xmlns="http://www.w3.org/2000/svg">
<path d="M0 5C0 2.23858 2.23858 0 5 0H115C117.761 0 120 2.23858 120 5V115C120 117.761 117.761 120 115 120H5C2.23858 120 0 117.761 0 115V5Z" fill="#1F202B"/>
<path d="M30 80C30 68.9543 38.9543 60 50 60H70C81.0457 60 90 68.9543 90 80V120H30V80Z" fill="#404258"/>
<path d="M78 38C78 47.9411 69.9411 56 60 56C50.0589 56 42 47.9411 42 38C42 28.0589 50.0589 20 60 20C69.9411 20 78 28.0589 78 38Z" fill="#404258"/>
</svg>
